<?xml version="1.0" encoding="UTF-8"?>
<svg version="1.1" xmlns="http://www.w3.org/2000/svg" width="1023" height="678">
<path d="M0 0 C3.17010213 -0.28168215 6.14274478 -0.36613829 9.31387329 -0.32279968 C10.78039009 -0.32051927 10.78039009 -0.32051927 12.27653348 -0.31819278 C15.57341557 -0.30937859 18.86975325 -0.27897152 22.16650391 -0.2487793 C24.52144326 -0.23807798 26.87638894 -0.22869929 29.2313385 -0.22055054 C35.64229808 -0.19459263 42.05301186 -0.1500325 48.46384096 -0.10225272 C54.47941765 -0.05879823 60.49508398 -0.03199117 66.51074712 -0.003723 C78.42814422 0.0527293 90.34542323 0.12262516 102.26269531 0.20092773 C113.84111324 0.27697518 125.41954074 0.34672073 136.99804688 0.40795898 C137.71141337 0.41173415 138.42477987 0.41550932 139.15976353 0.41939888 C142.73841475 0.43829827 146.31706661 0.45707343 149.89571881 0.47578681 C179.59726749 0.63126205 209.29865957 0.80875801 239 1 C238.68260827 2.60907011 238.36400507 4.21790129 238.04488564 5.82662964 C237.86759253 6.72257277 237.69029943 7.61851589 237.50763381 8.54160881 C236.98906155 11.05297321 236.36778669 13.49413246 235.61474609 15.9453125 C235.36042816 16.7815918 235.10611023 17.61787109 234.84408569 18.47949219 C234.57327179 19.35250977 234.30245789 20.22552734 234.0234375 21.125 C233.73449615 22.07020508 233.44555481 23.01541016 233.14785767 23.98925781 C232.22808644 26.99424498 231.30168336 29.99713815 230.375 33 C229.77690331 34.95038583 229.17924432 36.90090593 228.58203125 38.8515625 C226.08569413 46.99758712 223.57501074 55.1391712 221.06030273 63.27954102 C216.44944696 78.21676348 211.92481314 93.17840172 207.4446106 108.15530396 C206.28330579 112.03503308 205.11949341 115.91400164 203.95483398 119.79272461 C200.61538863 130.91665779 197.27819436 142.04109562 193.98554993 153.17900085 C192.79294776 157.2097934 191.59343656 161.23850942 190.39266968 165.26687622 C189.84279403 167.1186006 189.29637979 168.97135667 188.75357056 170.82516479 C188.01227185 173.35613854 187.25949867 175.88341975 186.50390625 178.41015625 C186.29219788 179.14469025 186.0804895 179.87922424 185.86236572 180.63601685 C184.78529367 184.19358766 183.94214021 186.67759251 181 189 C177.94042923 189.30074524 175.08297012 189.41569813 172.0214386 189.39872742 C170.62714411 189.40869766 170.62714411 189.40869766 169.20468205 189.41886932 C166.0768558 189.43758442 162.94940922 189.4348883 159.8215332 189.43237305 C157.5846604 189.441385 155.34779256 189.45171081 153.1109314 189.46325684 C147.02657944 189.49091942 140.94232093 189.50012392 134.85791421 189.50611091 C128.50372351 189.51547052 122.14960328 189.54167188 115.79545593 189.56611633 C105.12658458 189.60487811 94.45773652 189.63320332 83.78881836 189.65356445 C72.79920749 189.67456613 61.80964169 189.70183409 50.82006836 189.73754883 C50.14280853 189.73974765 49.46554871 189.74194648 48.76776586 189.74421193 C45.37019324 189.75528138 41.97262105 189.76647423 38.57504904 189.77772844 C10.38340556 189.87095149 -17.80826312 189.94231001 -46 190 C-48.58677046 198.1990213 -51.16956344 206.39928215 -53.74787045 214.60096836 C-54.94641144 218.41317681 -56.14610342 222.22501329 -57.34887695 226.03588867 C-63.52321195 245.6022953 -69.46859934 265.21435671 -75.11721516 284.93931961 C-77.00434703 291.4821455 -78.99487757 297.99249304 -81 304.5 C-81.45285931 305.97619367 -81.90556971 307.45243302 -82.3581543 308.92871094 C-85.12711854 317.95158496 -87.91676591 326.96807017 -90.70703125 335.984375 C-91.19950096 337.57575287 -91.19950096 337.57575287 -91.70191956 339.19927979 C-94.5771421 348.48991296 -94.5771421 348.48991296 -95.86953735 352.66369629 C-100.53250205 367.72553771 -105.16782218 382.79553049 -109.7734375 397.875 C-110.01889753 398.67864738 -110.26435757 399.48229477 -110.51725578 400.3102951 C-112.95312831 408.2864078 -115.3870566 416.26311153 -117.81809235 424.24069977 C-118.72909153 427.22970733 -119.64078134 430.21850402 -120.55255508 433.20727539 C-121.16912792 435.22943673 -121.78465296 437.25191473 -122.40011597 439.27441406 C-125.5315637 449.5396439 -128.76767597 459.76430723 -132 470 C-186.45 470 -240.9 470 -297 470 C-291.28181998 451.70182395 -291.28181998 451.70182395 -289.01171875 444.7890625 C-288.47301246 443.14112985 -287.93435931 441.49317983 -287.39575195 439.84521484 C-287.11817047 438.99707214 -286.84058899 438.14892944 -286.55459595 437.27508545 C-281.25131729 421.06679657 -276.01835599 404.83713685 -270.8374939 388.58932495 C-265.68789799 372.44047308 -260.49192256 356.31238067 -255.09228516 340.24536133 C-250.61806821 326.9233603 -246.28021123 313.55742249 -241.94482422 300.18969727 C-241.5252948 298.89720314 -241.5252948 298.89720314 -241.09729004 297.57859802 C-240.54219903 295.86816557 -239.98775101 294.15752431 -239.43395996 292.44667053 C-238.11416461 288.3798827 -236.77563041 284.32143945 -235.38916016 280.27685547 C-232.74414267 272.54274693 -230.38223889 264.86373074 -228.48869324 256.91119385 C-226.83902189 250.09383733 -224.63845958 243.4944582 -222.36889648 236.86206055 C-221.04765565 232.99980519 -219.74805924 229.13024284 -218.4453125 225.26171875 C-218.16975525 224.44516815 -217.894198 223.62861755 -217.61029053 222.787323 C-214.16227494 212.55041657 -210.83334235 202.27468986 -207.5 192 C-206.61939971 189.28617499 -205.73874239 186.57236874 -204.85769653 183.85868835 C-204.33165888 182.23802581 -203.80611221 180.61720376 -203.28121948 178.99617004 C-201.22339352 172.65209986 -199.11541553 166.32507564 -197 160 C-195.81808578 160.00666183 -194.63617157 160.01332367 -193.41844177 160.02018738 C-182.2241576 160.08127342 -171.0299077 160.12610382 -159.83549404 160.15543652 C-154.08174576 160.17102419 -148.32813313 160.19213509 -142.57446289 160.22631836 C-137.01123299 160.2591595 -131.44813274 160.27690475 -125.88481331 160.28463173 C-123.77317327 160.29013113 -121.66153949 160.30086871 -119.54995537 160.31719017 C-96.43560265 160.48858041 -75.02302962 157.64210712 -57 142 C-56.33613281 141.44699219 -55.67226563 140.89398438 -54.98828125 140.32421875 C-42.99977473 129.46721172 -36.175501 111.80534619 -31.75 96.6875 C-31.16766097 94.75713113 -30.58527535 92.82677518 -30.00045776 90.89715576 C-29.59788442 89.5684413 -29.19646286 88.23937734 -28.7961731 86.90997314 C-26.74779316 80.11846307 -24.56877902 73.37082542 -22.375 66.625 C-19.2466838 56.99331277 -16.15564466 47.35083154 -13.1015625 37.6953125 C-12.07500049 34.45589216 -11.04815808 31.21656079 -10.02130127 27.97723389 C-9.34250663 25.83229474 -8.66537195 23.68682954 -7.9899292 21.54083252 C-7.03917222 18.52066008 -6.08264529 15.5023691 -5.125 12.484375 C-4.69593857 11.11310959 -4.69593857 11.11310959 -4.25820923 9.71414185 C-3.98995331 8.8722934 -3.72169739 8.03044495 -3.4453125 7.16308594 C-3.09750732 6.06090729 -3.09750732 6.06090729 -2.74267578 4.9364624 C-2 3 -2 3 0 0 Z " fill="#E20A17" transform="translate(743,74)"/>
<path d="M0 0 C1.04880844 0.1317865 1.04880844 0.1317865 2.11880493 0.26623535 C13.57881252 1.72690626 13.57881252 1.72690626 16 2.9375 C13.91959847 10.65623073 11.75132449 18.34606808 9.5234375 26.0234375 C9.19679108 27.15063202 8.87014465 28.27782654 8.53359985 29.43917847 C7.48221277 33.06405051 6.42890382 36.68835892 5.375 40.3125 C5.0155127 41.54947632 4.65602539 42.78645264 4.28564453 44.06091309 C-0.34507748 59.98276527 -5.06021495 75.86561178 -10.046875 91.6796875 C-12.20284527 98.53150852 -14.22612706 105.4207373 -16.25 112.3125 C-17.21543891 115.57187583 -18.18346312 118.83046066 -19.15380859 122.08837891 C-19.67927285 123.85761371 -20.20111942 125.62793242 -20.71728516 127.39990234 C-23.23160673 135.98432454 -26.31086113 142.94692413 -32 149.9375 C-32.49886719 150.64390625 -32.99773437 151.3503125 -33.51171875 152.078125 C-42.67528243 164.17310577 -59.44776624 167.47198967 -73.68457031 169.44921875 C-78.13475062 169.98894314 -82.57792172 170.26875118 -87.0546875 170.4765625 C-88.39441116 170.53947983 -88.39441116 170.53947983 -89.76119995 170.60366821 C-97.80012693 170.94682047 -105.83753316 171.06389844 -113.8828125 171.1484375 C-115.1990863 171.16279846 -116.51536011 171.17715942 -117.871521 171.19195557 C-123.31435962 171.2495691 -128.75714987 171.30506554 -134.20019531 171.33886719 C-157.14562946 171.48907553 -180.14712479 172.42641463 -202.625 177.4375 C-203.74632324 177.68322754 -204.86764648 177.92895508 -206.02294922 178.18212891 C-247.17105551 187.69688998 -286.3716081 205.63159948 -318 233.9375 C-318.81082031 234.63875 -319.62164062 235.34 -320.45703125 236.0625 C-337.73677361 251.19302068 -351.65292821 267.62734144 -364 286.9375 C-364.3801123 287.52724609 -364.76022461 288.11699219 -365.15185547 288.72460938 C-381.56113046 314.38145409 -393.10563939 343.68378949 -397 373.9375 C-397.09877441 374.66904297 -397.19754883 375.40058594 -397.29931641 376.15429688 C-401.33584448 408.53255758 -394.04019865 440.92629244 -374 466.9375 C-370.16252012 471.74857009 -366.13063181 476.37709147 -362 480.9375 C-361.19949219 481.82308594 -360.39898437 482.70867187 -359.57421875 483.62109375 C-343.29412875 500.72202862 -321.78247932 512.23137429 -301 522.9375 C-301.73421011 529.8290631 -303.06919955 536.53459386 -304.5 543.3125 C-304.72558594 544.40433594 -304.95117188 545.49617187 -305.18359375 546.62109375 C-306.87128531 554.68007063 -306.87128531 554.68007063 -308 556.9375 C-330.81779273 553.34034209 -353.82224678 546.30906997 -374 534.9375 C-375.48886719 534.15439453 -375.48886719 534.15439453 -377.0078125 533.35546875 C-388.83382005 527.11304972 -399.01888432 519.75831494 -409 510.9375 C-409.92425781 510.12539063 -410.84851563 509.31328125 -411.80078125 508.4765625 C-414.22442803 506.32139253 -416.61931842 504.13994874 -419 501.9375 C-419.88365234 501.13505859 -419.88365234 501.13505859 -420.78515625 500.31640625 C-426.40824341 494.9857728 -431.02219272 488.77383145 -435.70703125 482.62744141 C-436.81230306 481.18282443 -437.93561162 479.75203756 -439.0625 478.32421875 C-464.44970445 445.16218294 -472.90484818 405.82992799 -474 364.9375 C-474.02868164 363.9666748 -474.05736328 362.99584961 -474.08691406 361.99560547 C-474.54221315 344.47811699 -473.12420987 327.3189911 -471 309.9375 C-470.88253418 308.97408691 -470.76506836 308.01067383 -470.64404297 307.01806641 C-464.60993236 259.26339484 -446.7485398 211.05591749 -420 170.9375 C-419.43845215 170.08430176 -418.8769043 169.23110352 -418.29833984 168.35205078 C-409.7623906 155.41858592 -400.69838041 143.01959389 -391 130.9375 C-390.19046875 129.91398438 -389.3809375 128.89046875 -388.546875 127.8359375 C-375.97769229 112.14706556 -361.82633007 97.34192086 -346 84.9375 C-345.20335937 84.28523438 -344.40671875 83.63296875 -343.5859375 82.9609375 C-331.39997935 72.99782514 -318.33339775 64.27578113 -305 55.9375 C-303.97350342 55.29530518 -303.97350342 55.29530518 -302.92626953 54.64013672 C-286.1965563 44.27034786 -268.34348192 36.02345563 -250 28.9375 C-249.01257813 28.5559375 -248.02515625 28.174375 -247.0078125 27.78125 C-213.84566406 15.05716427 -180.19487295 5.91574152 -145 0.9375 C-144.02981934 0.79860352 -143.05963867 0.65970703 -142.06005859 0.51660156 C-95.15907637 -6.00275001 -46.94840331 -5.90488793 0 0 Z " fill="#02145D" transform="translate(552,77.0625)"/>
<path d="M0 0 C2.39565282 0.00934881 4.79131533 0.01645511 7.1869812 0.0214386 C13.43088109 0.04034556 19.67418069 0.08930281 25.91784668 0.1449585 C32.31363815 0.19650618 38.70952853 0.21902786 45.10546875 0.24414062 C57.60963583 0.29743979 70.11336136 0.38255068 82.6171875 0.48828125 C81.2758567 4.93554932 79.93287069 9.38231329 78.58848572 13.82865906 C78.13336208 15.3346931 77.67865596 16.8408534 77.22441101 18.34715271 C74.30389378 28.03048447 71.30830047 37.68228397 68.1796875 47.30078125 C64.82678229 57.6460446 61.59251867 68.02126956 58.4296875 78.42578125 C54.35176387 91.83649333 50.22542036 105.23113111 46.0546875 118.61328125 C45.77183899 119.52091217 45.48899048 120.42854309 45.1975708 121.36367798 C44.91145935 122.28176239 44.6253479 123.1998468 44.33056641 124.14575195 C43.73339195 126.0620097 43.13622412 127.97826951 42.5390625 129.89453125 C42.23459198 130.87145432 41.93012146 131.84837738 41.61642456 132.85490417 C38.99065121 141.28284649 36.37322618 149.71336998 33.7578125 158.14453125 C33.55182497 158.8085281 33.34583744 159.47252495 33.13360786 160.15664291 C31.28373257 166.11978792 29.4341417 172.08302109 27.58517456 178.04644775 C26.44380548 181.72767396 25.30197862 185.40875811 24.16015625 189.08984375 C23.81603699 190.20016968 23.47191772 191.31049561 23.11737061 192.45446777 C22.80173157 193.47190063 22.48609253 194.4893335 22.16088867 195.53759766 C21.74790779 196.86955673 21.74790779 196.86955673 21.32658386 198.22842407 C20.77443636 199.98734836 20.20016962 201.7393349 19.6171875 203.48828125 C-31.5328125 203.48828125 -82.6828125 203.48828125 -135.3828125 203.48828125 C-133.46943492 196.47256345 -131.51680374 189.63663775 -129.15234375 182.78515625 C-128.84529007 181.88628693 -128.53823639 180.9874176 -128.22187805 180.06130981 C-127.21611642 177.1192313 -126.20568432 174.17877935 -125.1953125 171.23828125 C-124.4779912 169.14221358 -123.76103869 167.04601967 -123.04443359 164.94970703 C-121.55889426 160.60497428 -120.07178437 156.26078403 -118.58349609 151.91699219 C-115.8634304 143.97506188 -113.15734122 136.02839789 -110.45385742 128.08081055 C-109.15355274 124.25835648 -107.85009828 120.43699803 -106.54418945 116.61645508 C-103.27745808 107.05109221 -100.03896922 97.4776549 -96.86227417 87.88195801 C-95.26636141 83.06550711 -93.65938099 78.25277912 -92.05169678 73.44024658 C-91.28343408 71.13032364 -90.52045421 68.81863572 -89.76324463 66.50506592 C-85.69025232 54.06549611 -81.6193219 42.46742445 -74.3828125 31.48828125 C-73.87363281 30.70638428 -73.36445313 29.9244873 -72.83984375 29.11889648 C-62.50736146 13.81291358 -45.76219476 4.76166894 -28.10108185 0.94348526 C-18.85958401 -0.60410489 -9.33429287 -0.1083269 0 0 Z " fill="#02145D" transform="translate(405.3828125,340.51171875)"/>
<path d="M0 0 C-0.33 0.99 -0.66 1.98 -1 3 C-76.57 3.33 -152.14 3.66 -230 4 C-229.67 3.01 -229.34 2.02 -229 1 C-200.02803558 0.86945264 -171.05607047 0.7390589 -142.08410454 0.60884857 C-139.40730667 0.59681755 -136.7305088 0.58478596 -134.05371094 0.57275391 C-133.38837771 0.56976329 -132.72304447 0.56677268 -132.03754963 0.56369144 C-121.26513635 0.51526758 -110.49272349 0.46674866 -99.72031079 0.41819459 C-88.66650097 0.36837431 -77.61269067 0.31865823 -66.55887997 0.26903296 C-60.35027671 0.24115658 -54.14167367 0.21323267 -47.93307114 0.18519592 C-42.0907706 0.15881481 -36.24846952 0.13255961 -30.40616798 0.10640144 C-28.26076168 0.09677338 -26.11535559 0.08709911 -23.96994972 0.07737541 C-21.04245685 0.06411392 -18.11496328 0.05101815 -15.18746948 0.03796387 C-14.33726506 0.03407292 -13.48706064 0.03018197 -12.61109245 0.02617311 C-8.40735148 0.00760777 -4.20379633 -0.00411188 0 0 Z " fill="#EE7A7C" transform="translate(926,260)"/>
<path d="M0 0 C78.87 0.33 157.74 0.66 239 1 C238.34 4.3 237.68 7.6 237 11 C236.67 9.68 236.34 8.36 236 7 C235.34 7 234.68 7 234 7 C233.67 5.68 233.34 4.36 233 3 C117.665 2.505 117.665 2.505 0 2 C0.33 2.66 0.66 3.32 1 4 C1.06996014 5.70702735 1.08440154 7.41668003 1.0625 9.125 C1.05347656 10.03507812 1.04445313 10.94515625 1.03515625 11.8828125 C1.02355469 12.58148438 1.01195312 13.28015625 1 14 C0.34 14 -0.32 14 -1 14 C-1.99 16.31 -2.98 18.62 -4 21 C-4.99 21 -5.98 21 -7 21 C-6.59460705 19.1849452 -6.17495391 17.37307492 -5.75 15.5625 C-5.51796875 14.55316406 -5.2859375 13.54382813 -5.046875 12.50390625 C-3.76018669 8.19734127 -1.82545885 4.1072824 0 0 Z " fill="#DE1323" transform="translate(743,74)"/>
<path d="M0 0 C4.455 0.99 4.455 0.99 9 2 C9 2.33 9 2.66 9 3 C-12.66997556 6.75127308 -34.73185502 6.13786038 -56.6463623 6.06866455 C-60.30785528 6.05824441 -63.9693557 6.05382784 -67.63085938 6.04882812 C-74.75392374 6.03825602 -81.87695893 6.02129914 -89 6 C-88.34 5.67 -87.68 5.34 -87 5 C-87 3.68 -87 2.36 -87 1 C-86.01 1 -85.02 1 -84 1 C-84 1.66 -84 2.32 -84 3 C-83.38423096 2.83628906 -82.76846191 2.67257813 -82.1340332 2.50390625 C-77.69767569 1.79060549 -73.34093824 1.89805076 -68.85546875 1.9375 C-66.8053389 1.94605003 -64.75520867 1.95451024 -62.70507812 1.96289062 C-61.10515015 1.97219604 -61.10515015 1.97219604 -59.47290039 1.98168945 C-41.95494513 2.07932241 -24.49203492 2.07407232 -7 1 C-7.33 1.66 -7.66 2.32 -8 3 C-3.545 2.505 -3.545 2.505 1 2 C0.505 1.01 0.505 1.01 0 0 Z " fill="#2D3776" transform="translate(479,242)"/>
<path d="M0 0 C0 0.99 0 1.98 0 3 C-3.27181382 3.98391678 -6.19707693 4.1029257 -9.60546875 4.0625 C-10.67087891 4.05476563 -11.73628906 4.04703125 -12.83398438 4.0390625 C-13.94064453 4.02617188 -15.04730469 4.01328125 -16.1875 4 C-18.38927519 3.97461931 -20.59110572 3.95354272 -22.79296875 3.9375 C-23.7677417 3.92589844 -24.74251465 3.91429688 -25.74682617 3.90234375 C-27.96969282 3.74441777 -27.96969282 3.74441777 -29 5 C-31.67058851 5.14115161 -34.32432238 5.04247107 -37 5 C-37 4.67 -37 4.34 -37 4 C-35.02 3.67 -33.04 3.34 -31 3 C-42.385 2.505 -42.385 2.505 -54 2 C-54 1.67 -54 1.34 -54 1 C-35.98178444 0.09848981 -18.03671288 -0.12634835 0 0 Z " fill="#2E3876" transform="translate(500,73)"/>
<path d="M0 0 C0.33 0.66 0.66 1.32 1 2 C1.66 2 2.32 2 3 2 C3.33 1.34 3.66 0.68 4 0 C4.66 0 5.32 0 6 0 C5.125 7.75 5.125 7.75 4 10 C0.72699004 9.38605929 -2.54292425 8.75695364 -5.8125 8.125 C-6.74126953 7.95097656 -7.67003906 7.77695312 -8.62695312 7.59765625 C-9.51962891 7.42363281 -10.41230469 7.24960937 -11.33203125 7.0703125 C-12.56530151 6.83465576 -12.56530151 6.83465576 -13.82348633 6.59423828 C-16 6 -16 6 -19 4 C-18.67 3.34 -18.34 2.68 -18 2 C-17.34 2 -16.68 2 -16 2 C-16 2.66 -16 3.32 -16 4 C-14.08210287 3.71653722 -12.16570817 3.4228972 -10.25 3.125 C-8.64898437 2.88136719 -8.64898437 2.88136719 -7.015625 2.6328125 C-4.32291129 2.06776118 -2.36427561 1.36577086 0 0 Z " fill="#303B78" transform="translate(240,624)"/>
<path d="M0 0 C0.66 0 1.32 0 2 0 C1.67 3.3 1.34 6.6 1 10 C0.34 10 -0.32 10 -1 10 C-0.938125 11.423125 -0.938125 11.423125 -0.875 12.875 C-1 16 -1 16 -3 18 C-3.99 18 -4.98 18 -6 18 C-6.33 19.32 -6.66 20.64 -7 22 C-8 20 -8 20 -7.59448242 18.15234375 C-7.22867065 17.05599609 -7.22867065 17.05599609 -6.85546875 15.9375 C-6.59056641 15.14085937 -6.32566406 14.34421875 -6.05273438 13.5234375 C-5.62444336 12.27433594 -5.62444336 12.27433594 -5.1875 11 C-4.77661133 9.75089844 -4.77661133 9.75089844 -4.35742188 8.4765625 C-2.26013049 2.26013049 -2.26013049 2.26013049 0 0 Z " fill="#DF0C15" transform="translate(477,452)"/>
<path d="M0 0 C0.578125 1.859375 0.578125 1.859375 1 4 C-0.25 6.25 -0.25 6.25 -2 8 C-2.99 8 -3.98 8 -5 8 C-5.33 9.32 -5.66 10.64 -6 12 C-6.99 12 -7.98 12 -9 12 C-8.938125 12.94875 -8.87625 13.8975 -8.8125 14.875 C-8.874375 15.90625 -8.93625 16.9375 -9 18 C-12 20 -12 20 -14 20 C-14.33 21.65 -14.66 23.3 -15 25 C-16.32 24.34 -17.64 23.68 -19 23 C-12.89716127 15.11342715 -6.77063618 7.33323919 0 0 Z " fill="#363F7A" transform="translate(172,195)"/>
<path d="M0 0 C-0.26554688 1.03898437 -0.53109375 2.07796875 -0.8046875 3.1484375 C-2.7298692 10.73270717 -4.59299939 18.29852295 -6 26 C-7.9789756 22.36383344 -8.5251065 19.11574371 -9 15 C-8.01 14.34 -7.02 13.68 -6 13 C-5.95598268 10.66708189 -5.96045766 8.33299825 -6 6 C-5.125 3.125 -5.125 3.125 -4 1 C-2 0 -2 0 0 0 Z " fill="#444D85" transform="translate(162,418)"/>
<path d="M0 0 C-3.82941989 3.32993034 -8.37522222 5.05324525 -13 7 C-13.66 6.34 -14.32 5.68 -15 5 C-10.86355884 -0.7180216 -10.86355884 -0.7180216 -6.9375 -2 C-3.93834667 -2 -2.48149025 -1.62251286 0 0 Z " fill="#0F1D66" transform="translate(287,275)"/>
<path d="M0 0 C0.97608217 2.92824652 1.08226668 4.95613276 1 8 C1.66 8.33 2.32 8.66 3 9 C1.9318153 14.11365014 0.76892524 19.07227969 -1 24 C-3.24996878 20.62504683 -2.98554929 19.93950651 -2.28515625 16.171875 C-1.81676546 12.60440544 -2.03484336 9.04208613 -2.16015625 5.453125 C-2 3 -2 3 0 0 Z " fill="#E82834" transform="translate(612,520)"/>
<path d="M0 0 C2.39763185 2.39763185 2.34280586 3.33273498 2.625 6.625 C2.69976563 7.44226563 2.77453125 8.25953125 2.8515625 9.1015625 C2.92503906 10.04128906 2.92503906 10.04128906 3 11 C2.34 11 1.68 11 1 11 C0.01 13.31 -0.98 15.62 -2 18 C-2.99 18 -3.98 18 -5 18 C-1.92482916 5.33029613 -1.92482916 5.33029613 0 0 Z " fill="#E93541" transform="translate(741,77)"/>
<path d="M0 0 C0.66 0 1.32 0 2 0 C2.98163422 1.93625098 3.96022454 3.87404539 4.9375 5.8125 C5.48277344 6.89144531 6.02804688 7.97039063 6.58984375 9.08203125 C8 12 8 12 9 15 C8.01 15 7.02 15 6 15 C5.67 15.66 5.34 16.32 5 17 C4.80664062 16.39671875 4.61328125 15.7934375 4.4140625 15.171875 C4.15367187 14.37265625 3.89328125 13.5734375 3.625 12.75 C3.36976563 11.96109375 3.11453125 11.1721875 2.8515625 10.359375 C2.06659478 8.00373091 2.06659478 8.00373091 0.8984375 5.953125 C0 4 0 4 0 0 Z " fill="#242E6E" transform="translate(161,519)"/>
<path d="M0 0 C0.28875 0.598125 0.5775 1.19625 0.875 1.8125 C2.04742026 4.19327792 2.04742026 4.19327792 4 7 C3.65358161 10.46418389 2.96713413 12.04929881 1 15 C0.34 14.01 -0.32 13.02 -1 12 C-1.33 12 -1.66 12 -2 12 C-1.85904936 10.3745692 -1.71207913 8.74965949 -1.5625 7.125 C-1.48128906 6.22007812 -1.40007813 5.31515625 -1.31640625 4.3828125 C-1 2 -1 2 0 0 Z " fill="#E4212D" transform="translate(515,329)"/>
<path d="M0 0 C0.66 0.66 1.32 1.32 2 2 C3.32 1.67 4.64 1.34 6 1 C5.01 4.96 4.02 8.92 3 13 C2.01 12.01 1.02 11.02 0 10 C-0.33 10 -0.66 10 -1 10 C-1.125 3.375 -1.125 3.375 0 0 Z " fill="#E32933" transform="translate(626,473)"/>
<path d="M0 0 C2.30694043 3.46041065 2.62056512 5.90210331 3 10 C2.67 10.33 2.34 10.66 2 11 C0.35 11 -1.3 11 -3 11 C-2.01 7.37 -1.02 3.74 0 0 Z M3 3 C3.66 3 4.32 3 5 3 C5.33 4.65 5.66 6.3 6 8 C5.01 8.33 4.02 8.66 3 9 C3 7.02 3 5.04 3 3 Z " fill="#E82632" transform="translate(449,533)"/>
<path d="M0 0 C0.58523438 0.50917969 1.17046875 1.01835937 1.7734375 1.54296875 C-0.01366836 2.40663697 -1.806409 3.25865469 -3.6015625 4.10546875 C-4.59929687 4.58113281 -5.59703125 5.05679687 -6.625 5.546875 C-7.48351562 5.87558594 -8.34203125 6.20429688 -9.2265625 6.54296875 C-9.8865625 6.21296875 -10.5465625 5.88296875 -11.2265625 5.54296875 C-11.2265625 2.54296875 -11.2265625 2.54296875 -9.2265625 0.54296875 C-2.91882707 -1.91003947 -2.91882707 -1.91003947 0 0 Z " fill="#16236A" transform="translate(300.2265625,267.45703125)"/>
<path d="M0 0 C1.32 0.33 2.64 0.66 4 1 C3.06725891 2.12894876 2.12859878 3.25300876 1.1875 4.375 C0.66542969 5.00148438 0.14335937 5.62796875 -0.39453125 6.2734375 C-2 8 -2 8 -5 10 C-5.66 8.68 -6.32 7.36 -7 6 C-6.360625 5.71125 -5.72125 5.4225 -5.0625 5.125 C-2.84793921 4.17176549 -2.84793921 4.17176549 -2 2 C-1.34 2 -0.68 2 0 2 C0 1.34 0 0.68 0 0 Z " fill="#111C63" transform="translate(226,312)"/>
<path d="M0 0 C6.14830711 1.20555041 8.35248219 2.91558124 12 8 C11.01 8.495 11.01 8.495 10 9 C7.1796875 7.56640625 7.1796875 7.56640625 3.875 5.5625 C2.77929688 4.90378906 1.68359375 4.24507812 0.5546875 3.56640625 C-0.28835937 3.04949219 -1.13140625 2.53257812 -2 2 C-1.34 1.34 -0.68 0.68 0 0 Z " fill="#2A3372" transform="translate(166,602)"/>
<path d="M0 0 C0.66 0 1.32 0 2 0 C0.76583013 6.82423338 -0.8915995 13.39367844 -3 20 C-3.33 20 -3.66 20 -4 20 C-4 17.36 -4 14.72 -4 12 C-3.34 12 -2.68 12 -2 12 C-2.29197266 11.14148438 -2.29197266 11.14148438 -2.58984375 10.265625 C-3.0808174 7.55358006 -2.61252062 6.27004948 -1.5625 3.75 C-1.27503906 3.04359375 -0.98757813 2.3371875 -0.69140625 1.609375 C-0.46324219 1.07828125 -0.23507812 0.5471875 0 0 Z " fill="#E7454E" transform="translate(645,424)"/>
<path d="M0 0 C1.30286098 4.68541761 0.26672601 7.47425337 -1.5625 11.875 C-2.67406145 14.71742143 -2.99682602 16.16822081 -2.9375 19.3125 C-2.958125 20.199375 -2.97875 21.08625 -3 22 C-5 23.875 -5 23.875 -7 25 C-6.38574623 19.2073537 -4.84466956 14.05390934 -2.9375 8.5625 C-2.65583984 7.73556641 -2.37417969 6.90863281 -2.08398438 6.05664062 C-1.39482208 4.03587662 -0.6981769 2.01766718 0 0 Z " fill="#E8464F" transform="translate(725,128)"/>
<path d="M0 0 C4.18423892 3.50897269 8.19588166 7.08060535 12 11 C10.35 11 8.7 11 7 11 C7 10.34 7 9.68 7 9 C6.401875 8.95875 5.80375 8.9175 5.1875 8.875 C3 8 3 8 1.25 5.0625 C0 2 0 2 0 0 Z " fill="#26306F" transform="translate(193,562)"/>
<path d="M0 0 C0.82638376 2.89234315 1 4.88742431 1 8 C1.66 8 2.32 8 3 8 C3 8.66 3 9.32 3 10 C2.01 10 1.02 10 0 10 C-0.33 10.99 -0.66 11.98 -1 13 C-1.66 13 -2.32 13 -3 13 C-3.33 14.32 -3.66 15.64 -4 17 C-5 15 -5 15 -4.00390625 11.5234375 C-3.53099953 10.13802064 -3.05018356 8.75528453 -2.5625 7.375 C-2.31951172 6.66859375 -2.07652344 5.9621875 -1.82617188 5.234375 C-1.22412795 3.48726713 -0.61291983 1.74332214 0 0 Z " fill="#E73E48" transform="translate(483,430)"/>
<path d="M0 0 C1.32 0.33 2.64 0.66 4 1 C1.03 5.95 1.03 5.95 -2 11 C-4.35953094 8.64046906 -4.49141413 7.22104383 -5 4 C-3.35 3.34 -1.7 2.68 0 2 C0 1.34 0 0.68 0 0 Z " fill="#212C6E" transform="translate(189,355)"/>
<path d="M0 0 C0.99 0.33 1.98 0.66 3 1 C1.83795007 7.54849313 0.26616615 13.74538144 -2 20 C-2.33 20 -2.66 20 -3 20 C-3 16.04 -3 12.08 -3 8 C-2.01 8.33 -1.02 8.66 0 9 C0 6.03 0 3.06 0 0 Z " fill="#E63E4A" transform="translate(958,144)"/>
<path d="M0 0 C11.385 0.99 11.385 0.99 23 2 C23 2.33 23 2.66 23 3 C20.36 3 17.72 3 15 3 C15 3.66 15 4.32 15 5 C14.01 4.67 13.02 4.34 12 4 C12.66 4 13.32 4 14 4 C14 3.34 14 2.68 14 2 C11.69 2.33 9.38 2.66 7 3 C7 3.33 7 3.66 7 4 C4.03 3.67 1.06 3.34 -2 3 C-1.34 2.67 -0.68 2.34 0 2 C0 1.34 0 0.68 0 0 Z " fill="#4F5A8D" transform="translate(519,74)"/>
<path d="M0 0 C2.29633824 3.44450737 2.54016485 5.93812283 3 10 C2.34 9.34 1.68 8.68 1 8 C-0.65 9.32 -2.3 10.64 -4 12 C-4.125 5.375 -4.125 5.375 -3 2 C-2.01 2 -1.02 2 0 2 C0 1.34 0 0.68 0 0 Z " fill="#16266B" transform="translate(157,504)"/>
<path d="M0 0 C0.66 0.33 1.32 0.66 2 1 C0.47549821 6.80054339 -0.65326391 10.67635324 -6 14 C-6.33 13.34 -6.66 12.68 -7 12 C-5.56640625 9.1796875 -5.56640625 9.1796875 -3.5625 5.875 C-2.57443359 4.23144531 -2.57443359 4.23144531 -1.56640625 2.5546875 C-1.04949219 1.71164062 -0.53257813 0.86859375 0 0 Z " fill="#383F79" transform="translate(126,258)"/>
<path d="M0 0 C-1.0625 1.9375 -1.0625 1.9375 -3 4 C-6.5625 4.875 -6.5625 4.875 -10 5 C-10.66 4.34 -11.32 3.68 -12 3 C-10.75823305 2.29773859 -9.50614401 1.61370891 -8.25 0.9375 C-7.20585937 0.36322266 -7.20585937 0.36322266 -6.140625 -0.22265625 C-3.63859372 -1.1312406 -2.4667645 -0.88336837 0 0 Z " fill="#272F6E" transform="translate(293,112)"/>
<path d="M0 0 C0.66 0.66 1.32 1.32 2 2 C1.86589799 7.63228453 -0.91282878 11.51164037 -4 16 C-5 14 -5 14 -4.00390625 10.7421875 C-3.53110016 9.4502948 -3.05028031 8.16131362 -2.5625 6.875 C-2.31951172 6.21628906 -2.07652344 5.55757813 -1.82617188 4.87890625 C-1.22421679 3.25008662 -0.61297588 1.62470425 0 0 Z " fill="#E84B55" transform="translate(459,504)"/>
<path d="M0 0 C1.32 0 2.64 0 4 0 C2.9318153 5.11365014 1.76892524 10.07227969 0 15 C-0.33 15 -0.66 15 -1 15 C-1.07427838 11.65747276 -1.06546953 9.1964086 0 6 C-0.33 5.34 -0.66 4.68 -1 4 C-0.5625 1.875 -0.5625 1.875 0 0 Z " fill="#424A83" transform="translate(444,468)"/>
<path d="M0 0 C-0.5 1.9375 -0.5 1.9375 -2 4 C-4.69658452 4.68790422 -7.2017019 4.81946464 -10 5 C-9.8125 3.125 -9.8125 3.125 -9 1 C-5.6868424 -0.8804408 -3.58825658 -1.32898392 0 0 Z " fill="#162266" transform="translate(314,104)"/>
<path d="M0 0 C-0.33 2.97 -0.66 5.94 -1 9 C-1.33 8.01 -1.66 7.02 -2 6 C-4.01508358 5.26676204 -4.01508358 5.26676204 -6 5 C-6.33 5.66 -6.66 6.32 -7 7 C-7.33 5.68 -7.66 4.36 -8 3 C-7.21625 2.690625 -6.4325 2.38125 -5.625 2.0625 C-0.52941176 0 -0.52941176 0 0 0 Z " fill="#152368" transform="translate(176,379)"/>
<path d="M0 0 C2.10814567 4.21629134 2.17700355 6.39790775 2 11 C1.01 11 0.02 11 -1 11 C-1 12.98 -1 14.96 -1 17 C-1.66 16.67 -2.32 16.34 -3 16 C-2.01 10.72 -1.02 5.44 0 0 Z " fill="#495187" transform="translate(85,362)"/>
<path d="M0 0 C1 3 1 3 -0.21484375 5.48046875 C-0.78332031 6.37378906 -1.35179687 7.26710937 -1.9375 8.1875 C-2.50339844 9.08855469 -3.06929687 9.98960937 -3.65234375 10.91796875 C-4.09707031 11.60503906 -4.54179688 12.29210937 -5 13 C-6.0625 11.125 -6.0625 11.125 -7 9 C-6.67 8.34 -6.34 7.68 -6 7 C-5.34 7.33 -4.68 7.66 -4 8 C-4.33 7.01 -4.66 6.02 -5 5 C-4.34 5 -3.68 5 -3 5 C-2.67 4.01 -2.34 3.02 -2 2 C-1.34 2 -0.68 2 0 2 C0 1.34 0 0.68 0 0 Z " fill="#3F487F" transform="translate(527,212)"/>
<path d="M0 0 C3 1 3 1 5 3 C5.33 2.34 5.66 1.68 6 1 C7.4783226 3.95664519 7.06032783 6.74229737 7 10 C3.60582235 6.87378374 1.3937282 4.43458973 0 0 Z " fill="#2D3774" transform="translate(112,552)"/>
<path d="M0 0 C-5.49687876 2.96656949 -11.74410231 4.4036063 -18 4 C-12.23759526 0.15839684 -6.70842135 -0.23538321 0 0 Z " fill="#373E78" transform="translate(380,343)"/>
<path d="M0 0 C-0.33 0.66 -0.66 1.32 -1 2 C0.98 1.67 2.96 1.34 5 1 C5.33 1.66 5.66 2.32 6 3 C-2.415 3.495 -2.415 3.495 -11 4 C-11 3.67 -11 3.34 -11 3 C-9.02 2.67 -7.04 2.34 -5 2 C-5.66 1.34 -6.32 0.68 -7 0 C-3.86650268 -1.04449911 -3.01031744 -0.93423645 0 0 Z " fill="#000A54" transform="translate(475,242)"/>
<path d="M0 0 C2.00720923 0.28674418 4.0085944 0.61866701 6 1 C5.67 2.65 5.34 4.3 5 6 C3.35 6 1.7 6 0 6 C-0.38218767 4.34385343 -0.71395102 2.67542976 -1 1 C-0.67 0.67 -0.34 0.34 0 0 Z " fill="#01115B" transform="translate(238,626)"/>
<path d="M0 0 C0.66 0 1.32 0 2 0 C3.125 5.75 3.125 5.75 2 8 C0.68 8 -0.64 8 -2 8 C-1.125 2.25 -1.125 2.25 0 0 Z " fill="#1C2869" transform="translate(107,295)"/>
<path d="M0 0 C0.66 0.33 1.32 0.66 2 1 C1.40380045 5.86896303 0.43023178 10.32790951 -1 15 C-3 13 -3 13 -3.125 10.375 C-3.08375 9.59125 -3.0425 8.8075 -3 8 C-2.34 8 -1.68 8 -1 8 C-1.33 7.01 -1.66 6.02 -2 5 C-1.01 4.67 -0.02 4.34 1 4 C0.67 2.68 0.34 1.36 0 0 Z " fill="#E63741" transform="translate(928,245)"/>
<path d="M0 0 C0.66 0.33 1.32 0.66 2 1 C2.33 1.99 2.66 2.98 3 4 C3.99 3.67 4.98 3.34 6 3 C5.67 3.99 5.34 4.98 5 6 C3.0625 6.75 3.0625 6.75 1 7 C0.34 6.67 -0.32 6.34 -1 6 C-1 5.34 -1 4.68 -1 4 C-1.99 3.67 -2.98 3.34 -4 3 C-2.68 2.01 -1.36 1.02 0 0 Z " fill="#E01926" transform="translate(674,225)"/>
<path d="M0 0 C0.99 0 1.98 0 3 0 C2.40380045 4.86896303 1.43023178 9.32790951 0 14 C-1.4606285 11.35261084 -2 10.10551666 -2 7 C-1.34 7 -0.68 7 0 7 C-0.33 5.35 -0.66 3.7 -1 2 C-0.01 2.33 0.98 2.66 2 3 C2 2.34 2 1.68 2 1 C1.34 0.67 0.68 0.34 0 0 Z " fill="#E83E49" transform="translate(619,505)"/>
<path d="M0 0 C0.66 0.66 1.32 1.32 2 2 C1.9765625 4.6015625 1.9765625 4.6015625 1.625 7.625 C1.51414063 8.62789063 1.40328125 9.63078125 1.2890625 10.6640625 C1.19367188 11.43492187 1.09828125 12.20578125 1 13 C-0.96662189 9.3407937 -1.69113208 6.16971689 -2 2 C-1.34 1.34 -0.68 0.68 0 0 Z " fill="#2D3777" transform="translate(155,431)"/>
<path d="M0 0 C0.66 0 1.32 0 2 0 C1.54901762 1.93922422 1.08894441 3.87633594 0.625 5.8125 C0.36976563 6.89144531 0.11453125 7.97039062 -0.1484375 9.08203125 C-1 12 -1 12 -3 15 C-3 11.7 -3 8.4 -3 5 C-2.01 5 -1.02 5 0 5 C0 3.35 0 1.7 0 0 Z " fill="#EA4450" transform="translate(678,316)"/>
<path d="M0 0 C0.66 0 1.32 0 2 0 C3.35439668 2.70879335 3.06501451 5.00933268 3 8 C2.34 8 1.68 8 1 8 C1 7.34 1 6.68 1 6 C0.34 5.67 -0.32 5.34 -1 5 C-1.33 4.67 -1.66 4.34 -2 4 C-2.33 5.32 -2.66 6.64 -3 8 C-3 6.35 -3 4.7 -3 3 C-2.01 2.67 -1.02 2.34 0 2 C0 1.34 0 0.68 0 0 Z " fill="#17246B" transform="translate(84,472)"/>
<path d="M0 0 C0 0.33 0 0.66 0 1 C-1.5823006 1.33820166 -3.16589375 1.67035939 -4.75 2 C-6.07257813 2.2784375 -6.07257813 2.2784375 -7.421875 2.5625 C-10 3 -10 3 -14 3 C-14 2.34 -14 1.68 -14 1 C-8.83955235 -0.512545 -5.34001821 -1.33500455 0 0 Z " fill="#404679" transform="translate(363,251)"/>
<path d="M0 0 C-2.67477931 2.67477931 -5.492975 3.6464114 -9 5 C-9.99 5 -10.98 5 -12 5 C-11.25 3.0625 -11.25 3.0625 -10 1 C-6.79497337 -0.37358284 -3.44040362 -0.07819099 0 0 Z " fill="#2E3673" transform="translate(508,237)"/>
<path d="M0 0 C1.31225809 3.93677426 0.3393954 5.7794262 -0.9375 9.6875 C-1.50791016 11.45673828 -1.50791016 11.45673828 -2.08984375 13.26171875 C-2.39019531 14.16535156 -2.69054687 15.06898438 -3 16 C-3.33 16 -3.66 16 -4 16 C-4 13.69 -4 11.38 -4 9 C-3.34 9 -2.68 9 -2 9 C-2 6.36 -2 3.72 -2 1 C-1.34 0.67 -0.68 0.34 0 0 Z " fill="#EB565F" transform="translate(943,201)"/>
<path d="M0 0 C0.66 0.66 1.32 1.32 2 2 C2.66 1.67 3.32 1.34 4 1 C3.42415568 3.38564077 2.77772405 5.66682784 2 8 C-0.0625 8.6875 -0.0625 8.6875 -2 9 C-1.125 2.25 -1.125 2.25 0 0 Z " fill="#303B77" transform="translate(275,528)"/>
<path d="M0 0 C-0.66 2.97 -1.32 5.94 -2 9 C-2.33 9 -2.66 9 -3 9 C-3.33 7.35 -3.66 5.7 -4 4 C-4.99 4 -5.98 4 -7 4 C-7 3.01 -7 2.02 -7 1 C-4.50935112 0.31292445 -2.62113708 0 0 0 Z " fill="#E42F3B" transform="translate(625,496)"/>
<path d="M0 0 C1.125 1.5 1.125 1.5 2 4 C1.57598348 6.7773082 0.81108065 9.29639783 0 12 C-0.33 12 -0.66 12 -1 12 C-1 10.35 -1 8.7 -1 7 C-1.66 7 -2.32 7 -3 7 C-1.125 2.25 -1.125 2.25 0 0 Z " fill="#263172" transform="translate(477,364)"/>
<path d="M0 0 C-1.75 3.875 -1.75 3.875 -4 5 C-4 5.66 -4 6.32 -4 7 C-5.32 6.67 -6.64 6.34 -8 6 C-7.34 6 -6.68 6 -6 6 C-6 4.68 -6 3.36 -6 2 C-7.32 1.67 -8.64 1.34 -10 1 C-8.71073008 0.63720544 -7.41846728 0.28503302 -6.125 -0.0625 C-5.40570312 -0.25972656 -4.68640625 -0.45695313 -3.9453125 -0.66015625 C-2 -1 -2 -1 0 0 Z " fill="#E93D49" transform="translate(660,232)"/>
<path d="M0 0 C0.33 0.66 0.66 1.32 1 2 C1.66 2 2.32 2 3 2 C3.33 1.34 3.66 0.68 4 0 C3.67 1.65 3.34 3.3 3 5 C1.68 5.33 0.36 5.66 -1 6 C-1.33 7.32 -1.66 8.64 -2 10 C-3 8 -3 8 -2.44140625 6.0546875 C-2.15136719 5.33539063 -1.86132812 4.61609375 -1.5625 3.875 C-1.27503906 3.15054687 -0.98757813 2.42609375 -0.69140625 1.6796875 C-0.46324219 1.12539063 -0.23507812 0.57109375 0 0 Z " fill="#E93B43" transform="translate(472,464)"/>
<path d="M0 0 C2 3 2 3 1.625 5.1875 C1.41875 5.785625 1.2125 6.38375 1 7 C0.34 7 -0.32 7 -1 7 C-1 9.64 -1 12.28 -1 15 C-1.99 15 -2.98 15 -4 15 C-3.52229477 13.06213915 -3.04278429 11.12472326 -2.5625 9.1875 C-2.29566406 8.10855469 -2.02882813 7.02960938 -1.75390625 5.91796875 C-1.23922588 3.9259157 -0.65062825 1.95188476 0 0 Z " fill="#ED5459" transform="translate(502,371)"/>
<path d="M0 0 C1.18005182 3.68766192 1.20993972 7.15110517 1 11 C0.01 12.485 0.01 12.485 -1 14 C-1 13.34 -1 12.68 -1 12 C-1.66 12 -2.32 12 -3 12 C-2.68950274 10.56206608 -2.3765224 9.1246682 -2.0625 7.6875 C-1.88847656 6.88699219 -1.71445312 6.08648437 -1.53515625 5.26171875 C-1 3 -1 3 0 0 Z " fill="#E43841" transform="translate(510,347)"/>
<path d="M0 0 C0.33 0 0.66 0 1 0 C1 3.63 1 7.26 1 11 C0.01 11 -0.98 11 -2 11 C-2.33 12.32 -2.66 13.64 -3 15 C-4.57156655 11.8568669 -3.11705576 9.634536 -2.0625 6.375 C-1.68222656 5.18648438 -1.30195312 3.99796875 -0.91015625 2.7734375 C-0.60980469 1.85820312 -0.30945313 0.94296875 0 0 Z " fill="#EB5A64" transform="translate(529,285)"/>
<path d="M0 0 C2.39763185 2.39763185 2.34280586 3.33273498 2.625 6.625 C2.69976563 7.44226563 2.77453125 8.25953125 2.8515625 9.1015625 C2.92503906 10.04128906 2.92503906 10.04128906 3 11 C1.35 10.01 -0.3 9.02 -2 8 C-1.34 5.36 -0.68 2.72 0 0 Z " fill="#E82C3A" transform="translate(713,165)"/>
<path d="M0 0 C0.33 0.66 0.66 1.32 1 2 C0.34 2 -0.32 2 -1 2 C-1 3.65 -1 5.3 -1 7 C-1.99 6.67 -2.98 6.34 -4 6 C-6.51083114 7.25541557 -6.87125446 8.50063488 -8 11 C-8.33 9.68 -8.66 8.36 -9 7 C-6.03 4.69 -3.06 2.38 0 0 Z " fill="#353D77" transform="translate(215,155)"/>
<path d="M0 0 C0.99 0 1.98 0 3 0 C3.433125 1.2065625 3.433125 1.2065625 3.875 2.4375 C4.73262568 5.1326468 4.73262568 5.1326468 7 6 C6.67 7.65 6.34 9.3 6 11 C2.90407165 7.4912812 1.25805377 4.50802601 0 0 Z " fill="#3C437F" transform="translate(99,531)"/>
<path d="M0 0 C1.18771723 3.42943519 0.80226223 5.37784675 -0.4375 8.75 C-0.86869141 9.94882812 -0.86869141 9.94882812 -1.30859375 11.171875 C-1.53675781 11.77515625 -1.76492188 12.3784375 -2 13 C-2.66 11.68 -3.32 10.36 -4 9 C-3.34 9 -2.68 9 -2 9 C-2.33 6.69 -2.66 4.38 -3 2 C-2.34 2 -1.68 2 -1 2 C-0.67 1.34 -0.34 0.68 0 0 Z " fill="#49528B" transform="translate(461,422)"/>
<path d="M0 0 C0.66 0.66 1.32 1.32 2 2 C1.01 3.98 0.02 5.96 -1 8 C-1.99 7.67 -2.98 7.34 -4 7 C-3.67 5.02 -3.34 3.04 -3 1 C-2.01 0.67 -1.02 0.34 0 0 Z " fill="#1A256B" transform="translate(325,388)"/>
<path d="M0 0 C2 2 2 2 2.1953125 3.9453125 C2.13020833 5.96354167 2.06510417 7.98177083 2 10 C1.34 10 0.68 10 0 10 C0 8.35 0 6.7 0 5 C-0.99 5.33 -1.98 5.66 -3 6 C-2 4 -1 2 0 0 Z " fill="#1F2C6D" transform="translate(333,369)"/>
<path d="M0 0 C2.31 0 4.62 0 7 0 C3.8745041 2.64465038 0.91211733 3.84414715 -3 5 C-3.33 4.01 -3.66 3.02 -4 2 C-3.34 1.67 -2.68 1.34 -2 1 C-1.34 1.33 -0.68 1.66 0 2 C0 1.34 0 0.68 0 0 Z " fill="#3D467F" transform="translate(280,275)"/>
<path d="M0 0 C0.66 0.33 1.32 0.66 2 1 C0.6875 3.9375 0.6875 3.9375 -1 7 C-1.99 7.33 -2.98 7.66 -4 8 C-4.33 7.01 -4.66 6.02 -5 5 C-3.35 3.35 -1.7 1.7 0 0 Z " fill="#3C4380" transform="translate(343,358)"/>
<path d="M0 0 C0.99 0.33 1.98 0.66 3 1 C2.45773019 4.79588866 0.79872437 6.47211993 -2 9 C-2 7.02 -2 5.04 -2 3 C-1.01 3 -0.02 3 1 3 C0.67 2.01 0.34 1.02 0 0 Z " fill="#2B3472" transform="translate(196,344)"/>
<path d="M0 0 C0.99 0.33 1.98 0.66 3 1 C1.5361389 5.39158329 -0.97831338 5.87947433 -5 8 C-5 6.68 -5 5.36 -5 4 C-4.34 4 -3.68 4 -3 4 C-2.67 3.34 -2.34 2.68 -2 2 C-1.34 2 -0.68 2 0 2 C0 1.34 0 0.68 0 0 Z " fill="#2E3873" transform="translate(254,290)"/>
<path d="M0 0 C0.66 0 1.32 0 2 0 C1.42415568 2.38564077 0.77772405 4.66682784 0 7 C-0.66 7 -1.32 7 -2 7 C-2.33 7.66 -2.66 8.32 -3 9 C-3.75 7.3125 -3.75 7.3125 -4 5 C-2.1875 2.25 -2.1875 2.25 0 0 Z " fill="#283170" transform="translate(141,235)"/>
<path d="M0 0 C1.32 0 2.64 0 4 0 C3.34 3.3 2.68 6.6 2 10 C-0.4294516 6.3558226 -0.16179575 4.28758728 0 0 Z " fill="#2B3478" transform="translate(537,169)"/>
<path d="M0 0 C0.66 0.33 1.32 0.66 2 1 C0.515 7.435 0.515 7.435 -1 14 C-3 11 -3 11 -2.625 8.3125 C-2.41875 7.549375 -2.2125 6.78625 -2 6 C-1.34 6 -0.68 6 0 6 C0 4.02 0 2.04 0 0 Z " fill="#424985" transform="translate(563,88)"/>
<path d="M0 0 C2.475 0.495 2.475 0.495 5 1 C5 1.99 5 2.98 5 4 C5.99 4 6.98 4 8 4 C8.33 5.65 8.66 7.3 9 9 C7.87105124 8.06725891 6.74699124 7.12859878 5.625 6.1875 C4.99851563 5.66542969 4.37203125 5.14335938 3.7265625 4.60546875 C2 3 2 3 0 0 Z " fill="#51598D" transform="translate(128,573)"/>
<path d="M0 0 C1.9375 0.6875 1.9375 0.6875 4 2 C4.93580311 4.87939419 5.37245106 6.25509788 4 9 C4.66 9.33 5.32 9.66 6 10 C5.34 10.66 4.68 11.32 4 12 C3.3291288 10.3767313 2.66342971 8.75132422 2 7.125 C1.62875 6.22007812 1.2575 5.31515625 0.875 4.3828125 C0 2 0 2 0 0 Z " fill="#51598F" transform="translate(89,509)"/>
<path d="M0 0 C1.32 0 2.64 0 4 0 C4 2.31 4 4.62 4 7 C3.34 6.34 2.68 5.68 2 5 C1.67 6.98 1.34 8.96 1 11 C0.67 11 0.34 11 0 11 C0 7.37 0 3.74 0 0 Z " fill="#000C55" transform="translate(81,464)"/>
<path d="M0 0 C0.99 0 1.98 0 3 0 C2.67 1.32 2.34 2.64 2 4 C1.34 4 0.68 4 0 4 C-0.33 5.32 -0.66 6.64 -1 8 C-1.99 7.01 -2.98 6.02 -4 5 C-2.1875 2.5 -2.1875 2.5 0 0 Z " fill="#172267" transform="translate(160,414)"/>
<path d="M0 0 C0.99 0.33 1.98 0.66 3 1 C2.67 3.31 2.34 5.62 2 8 C1.01 8 0.02 8 -1 8 C-0.67 5.36 -0.34 2.72 0 0 Z " fill="#26306E" transform="translate(465,401)"/>
<path d="M0 0 C1.15957207 3.47871621 0.77456651 4.34219645 -0.4375 7.6875 C-0.86869141 8.89986328 -0.86869141 8.89986328 -1.30859375 10.13671875 C-1.53675781 10.75160156 -1.76492188 11.36648438 -2 12 C-2.66 11.34 -3.32 10.68 -4 10 C-3.828125 7.87109375 -3.828125 7.87109375 -3.25 5.4375 C-3.06953125 4.63183594 -2.8890625 3.82617188 -2.703125 2.99609375 C-2 1 -2 1 0 0 Z " fill="#E94D58" transform="translate(663,369)"/>
<path d="M0 0 C0.99 0.66 1.98 1.32 3 2 C1.515 7.445 1.515 7.445 0 13 C-0.33 13 -0.66 13 -1 13 C-1.33 10.69 -1.66 8.38 -2 6 C-1.01 6 -0.02 6 1 6 C0.67 4.02 0.34 2.04 0 0 Z " fill="#E9414D" transform="translate(685,289)"/>
<path d="M0 0 C0.66 0 1.32 0 2 0 C2 1.98 2 3.96 2 6 C0.35 6.66 -1.3 7.32 -3 8 C-1.125 2.25 -1.125 2.25 0 0 Z " fill="#2C3676" transform="translate(117,274)"/>
<path d="M0 0 C0.6875 1.75 0.6875 1.75 1 4 C-0.25 6.25 -0.25 6.25 -2 8 C-2.99 8 -3.98 8 -5 8 C-3.8141763 4.62496331 -2.72426311 2.35277269 0 0 Z " fill="#252F71" transform="translate(172,195)"/>
<path d="M0 0 C0.66 1.32 1.32 2.64 2 4 C-1.3 3.01 -4.6 2.02 -8 1 C-8 0.67 -8 0.34 -8 0 C-4.71303767 -0.79953138 -3.28976808 -1.09658936 0 0 Z " fill="#3C457D" transform="translate(205,620)"/>
<path d="M0 0 C0.66 0 1.32 0 2 0 C1.67 3.3 1.34 6.6 1 10 C0.01 9.34 -0.98 8.68 -2 8 C-1.125 2.25 -1.125 2.25 0 0 Z " fill="#343F7D" transform="translate(246,613)"/>
<path d="M0 0 C2.64752004 2.57784846 4.94432065 4.91648098 7 8 C4.625 7.75 4.625 7.75 2 7 C0.2058242 4.43689172 0 3.16880694 0 0 Z " fill="#414B84" transform="translate(177,544)"/>
<path d="M0 0 C0.99 0.33 1.98 0.66 3 1 C2.25 7.625 2.25 7.625 0 11 C0 10.34 0 9.68 0 9 C-0.66 8.67 -1.32 8.34 -2 8 C-1.01 7.67 -0.02 7.34 1 7 C0.67 4.69 0.34 2.38 0 0 Z " fill="#39437D" transform="translate(483,343)"/>
<path d="M0 0 C0.33 0 0.66 0 1 0 C1.84098656 4.01804691 2.05404945 7.01803543 1 11 C0.01 11 -0.98 11 -2 11 C-3 9 -3 9 -2.44140625 6.8359375 C-2.15136719 6.02382812 -1.86132812 5.21171875 -1.5625 4.375 C-1.27503906 3.55773437 -0.98757813 2.74046875 -0.69140625 1.8984375 C-0.46324219 1.27195313 -0.23507812 0.64546875 0 0 Z " fill="#E8535A" transform="translate(545,237)"/>
<path d="M0 0 C1.65 0.33 3.3 0.66 5 1 C5 1.66 5 2.32 5 3 C5.66 3.33 6.32 3.66 7 4 C1.25 5.125 1.25 5.125 -1 4 C-0.67 2.68 -0.34 1.36 0 0 Z " fill="#0D195E" transform="translate(205,163)"/>
<path d="M0 0 C0.66 0.33 1.32 0.66 2 1 C2 4 2 4 0.5 5.6875 C0.005 6.120625 -0.49 6.55375 -1 7 C-1 6.34 -1 5.68 -1 5 C-2.32 4.67 -3.64 4.34 -5 4 C-3.35 2.68 -1.7 1.36 0 0 Z " fill="#313A78" transform="translate(221,150)"/>
<path d="M0 0 C1.31223496 3.93670488 0.24296256 6.12488144 -1 10 C-1.66 9.67 -2.32 9.34 -3 9 C-3 6.69 -3 4.38 -3 2 C-2.01 2 -1.02 2 0 2 C0 1.34 0 0.68 0 0 Z " fill="#414A80" transform="translate(550,136)"/>
<path d="M0 0 C1.98 0.495 1.98 0.495 4 1 C4.33 2.98 4.66 4.96 5 7 C4.67 6.01 4.34 5.02 4 4 C2.35 4 0.7 4 -1 4 C-0.67 2.68 -0.34 1.36 0 0 Z " fill="#152268" transform="translate(561,81)"/>
<path d="M0 0 C2.475 0.495 2.475 0.495 5 1 C4.67 3.31 4.34 5.62 4 8 C3.67 6.68 3.34 5.36 3 4 C2.34 4 1.68 4 1 4 C0.67 2.68 0.34 1.36 0 0 Z " fill="#E7323D" transform="translate(976,77)"/>
<path d="M0 0 C0.66 0.33 1.32 0.66 2 1 C1.67 3.31 1.34 5.62 1 8 C0.01 7.67 -0.98 7.34 -2 7 C-2.33 5.35 -2.66 3.7 -3 2 C-2.01 1.34 -1.02 0.68 0 0 Z " fill="#E6353D" transform="translate(651,403)"/>
<path d="M0 0 C1.32 0.33 2.64 0.66 4 1 C3 4 3 4 0.9375 5.1875 C0.298125 5.455625 -0.34125 5.72375 -1 6 C-1 5.01 -1 4.02 -1 3 C-1.66 3 -2.32 3 -3 3 C-2.67 2.34 -2.34 1.68 -2 1 C-1.34 1.33 -0.68 1.66 0 2 C0 1.34 0 0.68 0 0 Z " fill="#1B2666" transform="translate(243,297)"/>
<path d="M0 0 C0.66 0.66 1.32 1.32 2 2 C1.67 2.99 1.34 3.98 1 5 C2.32 4.01 3.64 3.02 5 2 C5.99 3.485 5.99 3.485 7 5 C5.02 5.66 3.04 6.32 1 7 C-0.0625 4.625 -0.0625 4.625 -1 2 C-0.67 1.34 -0.34 0.68 0 0 Z " fill="#1F2D70" transform="translate(186,557)"/>
<path d="M0 0 C1.25541557 3.76624671 0.37061958 5.37188934 -1 9 C-1.99 8.67 -2.98 8.34 -4 8 C-3.67 6.02 -3.34 4.04 -3 2 C-2.34 2 -1.68 2 -1 2 C-0.67 1.34 -0.34 0.68 0 0 Z " fill="#283378" transform="translate(291,487)"/>
<path d="M0 0 C0.33 0 0.66 0 1 0 C1.625 2.8125 1.625 2.8125 2 6 C0 9 0 9 -3 11 C-2.01 7.37 -1.02 3.74 0 0 Z " fill="#5A6195" transform="translate(298,459)"/>
<path d="M0 0 C0.66 1.32 1.32 2.64 2 4 C0.9228363 7.23149109 -0.51017777 8.51017777 -3 11 C-2.01 7.37 -1.02 3.74 0 0 Z " fill="#EC545E" transform="translate(506,359)"/>
<path d="M0 0 C2.31 0 4.62 0 7 0 C7.33 0.66 7.66 1.32 8 2 C6.35 2.66 4.7 3.32 3 4 C1.97895449 3.02149805 0.9793879 2.02019573 0 1 C0 0.67 0 0.34 0 0 Z " fill="#1D286B" transform="translate(505,233)"/>
<path d="M0 0 C1.32 0 2.64 0 4 0 C3.34 2.97 2.68 5.94 2 9 C1.67 9 1.34 9 1 9 C0.67 6.03 0.34 3.06 0 0 Z " fill="#E7484E" transform="translate(964,122)"/>
<path d="M0 0 C2.375 0.6875 2.375 0.6875 5 2 C6.3125 4.625 6.3125 4.625 7 7 C4.50638429 5.79618552 2.31856917 4.54571278 0 3 C0 2.01 0 1.02 0 0 Z " fill="#3B437B" transform="translate(152,593)"/>
<path d="M0 0 C0.99 0 1.98 0 3 0 C3.33 2.31 3.66 4.62 4 7 C3.34 6.34 2.68 5.68 2 5 C1.01 5.495 1.01 5.495 0 6 C0 4.02 0 2.04 0 0 Z " fill="#35407E" transform="translate(156,507)"/>
<path d="M0 0 C0.33 0 0.66 0 1 0 C1.8125 2.6875 1.8125 2.6875 2 6 C-0.4375 8.875 -0.4375 8.875 -3 11 C-2.01 7.37 -1.02 3.74 0 0 Z " fill="#E54B54" transform="translate(465,485)"/>
<path d="M0 0 C0.66 0.99 1.32 1.98 2 3 C1.67 3.66 1.34 4.32 1 5 C1.66 5 2.32 5 3 5 C2.67 6.65 2.34 8.3 2 10 C1.67 8.68 1.34 7.36 1 6 C0.34 6 -0.32 6 -1 6 C-0.67 4.02 -0.34 2.04 0 0 Z " fill="#E5313C" transform="translate(485,424)"/>
<path d="M0 0 C0.99 0 1.98 0 3 0 C1.92598892 2.91517292 1.22189824 4.77810176 -1 7 C-1.33 5.35 -1.66 3.7 -2 2 C-1.34 2 -0.68 2 0 2 C0 1.34 0 0.68 0 0 Z " fill="#262E70" transform="translate(179,372)"/>
<path d="M0 0 C2.97 0 5.94 0 9 0 C6.01353231 1.99097846 3.40312738 2.94124926 0 4 C0 2.68 0 1.36 0 0 Z " fill="#495388" transform="translate(289,270)"/>
<path d="M0 0 C0.66 0.33 1.32 0.66 2 1 C1.34 3.97 0.68 6.94 0 10 C-1 8 -2 6 -3 4 C-2.01 4 -1.02 4 0 4 C-0.33 3.01 -0.66 2.02 -1 1 C-0.67 0.67 -0.34 0.34 0 0 Z " fill="#E84C56" transform="translate(694,264)"/>
<path d="M0 0 C2.6875 0.875 2.6875 0.875 5 2 C2.64046906 4.35953094 1.22104383 4.49141413 -2 5 C-2.33 4.01 -2.66 3.02 -3 2 C-2.01 1.34 -1.02 0.68 0 0 Z " fill="#303B7C" transform="translate(264,123)"/>
<path d="M0 0 C1.98 1.65 3.96 3.3 6 5 C5.01 5.495 5.01 5.495 4 6 C3.67 6.66 3.34 7.32 3 8 C0 2.25 0 2.25 0 0 Z " fill="#3C477F" transform="translate(193,562)"/>
<path d="M0 0 C0.33 0.66 0.66 1.32 1 2 C1.66 2 2.32 2 3 2 C2 4 1 6 0 8 C-0.66 8 -1.32 8 -2 8 C-1.34 5.36 -0.68 2.72 0 0 Z " fill="#313976" transform="translate(320,395)"/>
<path d="M0 0 C0.99 0.66 1.98 1.32 3 2 C2.34 3.98 1.68 5.96 1 8 C0.34 8 -0.32 8 -1 8 C-1.33 7.01 -1.66 6.02 -2 5 C-1.34 4.34 -0.68 3.68 0 3 C0 2.01 0 1.02 0 0 Z " fill="#323C78" transform="translate(171,386)"/>
<path d="M0 0 C2 3 2 3 2 6 C1.01 6 0.02 6 -1 6 C-1.33 7.32 -1.66 8.64 -2 10 C-3 8 -3 8 -2.44140625 6.0546875 C-2.15136719 5.33539063 -1.86132812 4.61609375 -1.5625 3.875 C-1.27503906 3.15054687 -0.98757812 2.42609375 -0.69140625 1.6796875 C-0.46324219 1.12539063 -0.23507813 0.57109375 0 0 Z " fill="#4C5286" transform="translate(98,317)"/>
<path d="M0 0 C0.33 0 0.66 0 1 0 C1 1.65 1 3.3 1 5 C-0.98 5.99 -0.98 5.99 -3 7 C-2.25 2.25 -2.25 2.25 0 0 Z " fill="#222A68" transform="translate(102,310)"/>
<path d="M0 0 C1.74627478 2.61941217 2.38722388 4.03824877 3 7 C1.68 7 0.36 7 -1 7 C-0.67 4.69 -0.34 2.38 0 0 Z " fill="#E32E36" transform="translate(531,280)"/>
<path d="M0 0 C1.43088528 2.86177057 0.59991697 4.93375773 0 8 C-0.33 7.34 -0.66 6.68 -1 6 C-2.32 6.33 -3.64 6.66 -5 7 C-3.35 4.69 -1.7 2.38 0 0 Z " fill="#E73B45" transform="translate(695,206)"/>
<path d="M0 0 C0.99 0.33 1.98 0.66 3 1 C3 2.32 3 3.64 3 5 C0.525 4.01 0.525 4.01 -2 3 C-2 2.34 -2 1.68 -2 1 C-1.34 0.67 -0.68 0.34 0 0 Z " fill="#2E3B77" transform="translate(182,610)"/>
<path d="M0 0 C2.125 0.9375 2.125 0.9375 4 2 C4 2.66 4 3.32 4 4 C3.01 4.33 2.02 4.66 1 5 C0.01 3.68 -0.98 2.36 -2 1 C-1.34 0.67 -0.68 0.34 0 0 Z " fill="#283170" transform="translate(123,564)"/>
<path d="M0 0 C0.33 0 0.66 0 1 0 C1.33 2.31 1.66 4.62 2 7 C1.01 7 0.02 7 -1 7 C-1.33 7.99 -1.66 8.98 -2 10 C-1.54177532 6.53058454 -1.10868317 3.32604951 0 0 Z " fill="#EB4551" transform="translate(475,454)"/>
<path d="M0 0 C0.99 0 1.98 0 3 0 C2.67 3.3 2.34 6.6 2 10 C1.67 10 1.34 10 1 10 C0.67 6.7 0.34 3.4 0 0 Z " fill="#3D447F" transform="translate(156,424)"/>
<path d="M0 0 C1.32 0.66 2.64 1.32 4 2 C4 2.66 4 3.32 4 4 C2.35 4 0.7 4 -1 4 C-1 1 -1 1 0 0 Z " fill="#263175" transform="translate(348,354)"/>
<path d="M0 0 C1.65 0 3.3 0 5 0 C3.02 2.97 3.02 2.97 1 6 C-0.0625 4.125 -0.0625 4.125 -1 2 C-0.67 1.34 -0.34 0.68 0 0 Z " fill="#2B3574" transform="translate(206,332)"/>
<path d="M0 0 C0.66 0.33 1.32 0.66 2 1 C1.1875 3.4375 1.1875 3.4375 0 6 C-0.99 6.33 -1.98 6.66 -3 7 C-1.125 1.125 -1.125 1.125 0 0 Z " fill="#313973" transform="translate(126,258)"/>
<path d="M0 0 C-2.91765 1.9451 -4.62537285 2.45276317 -8 3 C-8.33 2.01 -8.66 1.02 -9 0 C-5.67465243 -1.10844919 -3.37817425 -0.84454356 0 0 Z " fill="#50578C" transform="translate(325,260)"/>
<path d="M0 0 C0.66 0.33 1.32 0.66 2 1 C1.34 2.32 0.68 3.64 0 5 C-1.98 5 -3.96 5 -6 5 C-5.195625 4.360625 -4.39125 3.72125 -3.5625 3.0625 C-1.7249496 1.59396498 -1.7249496 1.59396498 0 0 Z " fill="#3D457D" transform="translate(242,136)"/>
<path d="" fill="#EEF1DE" transform="translate(0,0)"/>
<path d="" fill="#DEE3E7" transform="translate(0,0)"/>
<path d="" fill="#D4F1F7" transform="translate(0,0)"/>
<path d="" fill="#E6EDDD" transform="translate(0,0)"/>
<path d="" fill="#D3FFFF" transform="translate(0,0)"/>
</svg>
